<?xml version="1.0" encoding="iso-8859-1"?>
<!-- Uploaded to: SVG Repo, www.svgrepo.com, Generator: SVG Repo Mixer Tools -->
<svg height="800px" width="800px" version="1.1" id="Layer_1" xmlns="http://www.w3.org/2000/svg" xmlns:xlink="http://www.w3.org/1999/xlink" 
	 viewBox="0 0 512 512" xml:space="preserve">
<circle style="fill:#FFE356;" cx="256" cy="256" r="256"/>
<path style="fill:#E4E7ED;" d="M429.3,120.1c-3.6-4.3-8.5-6.6-14.1-6.7l-113.5-1.7c-4.8,0-8.8,1.4-12.4,4.4l-206.5,173h-0.1
	c-8,6.7-9.1,18.6-2.4,26.6l96.3,114.9c6.7,8,18.6,9.1,26.6,2.4l206.5-173c3.7-3,5.9-6.8,6.6-11.6L433.6,135
	C434.5,129.5,433,124.4,429.3,120.1z M394.1,170.9c-6.9,5.9-17.3,4.9-23.2-2c-5.9-6.9-4.9-17.3,2-23.2s17.3-4.9,23.2,2
	C402,154.7,401,165.1,394.1,170.9z"/>
<path style="fill:#C6CBD6;" d="M397.3,143.5c-7-8.5-19.7-9.6-28.2-2.5c-8.5,7-9.6,19.7-2.5,28.2c7,8.5,19.7,9.6,28.2,2.5
	C403.3,164.6,404.4,152,397.3,143.5z M389.6,165.3c-5,4.2-12.4,3.6-16.6-1.4s-3.6-12.4,1.4-16.6c5-4.2,12.4-3.6,16.6,1.4
	S394.6,161.1,389.6,165.3z"/>
<path style="fill:#FEFEFE;" d="M424.9,114.9c-3.6-4.3-8.5-6.6-14.1-6.7l-113.5-1.7c-4.8-0.1-8.8,1.4-12.4,4.4L78.4,284h-0.1
	c-8,6.7-9.1,18.6-2.4,26.6l96.3,114.9c6.7,8,18.6,9.1,26.6,2.4l206.5-173c3.7-3,5.9-6.8,6.6-11.6L429.2,130
	C430.1,124.4,428.6,119.2,424.9,114.9z M389.7,165.8c-6.9,5.9-17.3,4.9-23.2-2c-5.9-6.9-4.9-17.3,2-23.2s17.3-4.9,23.2,2
	C397.6,149.6,396.6,160,389.7,165.8z"/>
<path style="fill:#E4E7ED;" d="M395,140.6c-7-8.5-19.7-9.6-28.2-2.5c-8.5,7-9.6,19.7-2.5,28.2c7,8.5,19.7,9.6,28.2,2.5
	S402.1,149.1,395,140.6z M387.3,162.5c-5,4.2-12.4,3.6-16.6-1.4s-3.6-12.4,1.4-16.6c5-4.2,12.4-3.6,16.6,1.4
	S392.3,158.3,387.3,162.5z"/>
<path style="fill:#6B7F9E;" d="M196.9,236.6l5.6-4.7l71.2,84.3l-5.6,4.7L196.9,236.6z M186.1,245.7l7.3-6.1l71.2,84.3l-7.3,6.1
	L186.1,245.7z M284.2,162.8l7.3-6.1l71.2,84.3l-7.3,6.1L284.2,162.8z M179.9,250.9l2.7-2.4l71.2,84.3l-2.7,2.4L179.9,250.9z
	 M278,168l2.7-2.4l71.2,84.2l-2.7,2.4L278,167.8V168z M172.3,257.3l4.7-3.9l71.2,84.3l-4.7,3.9L172.3,257.3z M270.3,174.4l4.7-3.9
	l71.2,84.3l-4.7,3.9L270.3,174.4z M168.7,260.3l1.6-1.3l71.2,84.3l-1.6,1.3l-71.2-84.2V260.3z M266.8,177.4l1.6-1.3l71.2,84.3
	l-1.6,1.3L266.8,177.4z M163.2,265l2.7-2.4l71.2,84.3l-2.7,2.4L163.2,265z M261.4,182.1l2.7-2.4l71.2,84.3l-2.7,2.4L261.4,182.1z
	 M250.1,191.5l8.4-7l71.2,84.2l-8.4,7l-71.2-84.3L250.1,191.5L250.1,191.5z M156.4,270.8l2.7-2.4l71.2,84.3l-2.7,2.4l-71.2-84.2
	V270.8z M242.5,197.9l2.7-2.4l71.2,84.3l-2.7,2.4L242.5,197.9z M148.7,277.3l2.7-2.4l71.2,84.3l-2.7,2.4L148.7,277.3z M234.9,204.4
	l2.7-2.4l71.2,84.3l-2.7,2.4L234.9,204.4z M141.1,283.7l2.7-2.4l71.2,84.3l-2.7,2.4L141.1,283.7z M227.2,210.8l2.7-2.4l71.2,84.3
	l-2.7,2.4L227.2,210.8z M135.1,288.7l-1.7,1.4l71.2,84.2l1.7-1.4l-71.2-84.3V288.7z M221.2,215.9l-1.7,1.4l71.2,84.3l1.7-1.4
	L221.2,215.9z M125.7,296.6l2.7-2.4l71.2,84.3l-2.7,2.4L125.7,296.6z M211.8,223.7l2.7-2.4l71.2,84.3L283,308L211.8,223.7z
	 M204.2,230.2l2.7-2.4l71.2,84.3l-2.7,2.4l-71.2-84.2L204.2,230.2L204.2,230.2z"/>
</svg>